<svg width="25" height="25" viewBox="0 0 25 25" fill="none" xmlns="http://www.w3.org/2000/svg">
<mask id="path-1-outside-1_3014_842" maskUnits="userSpaceOnUse" x="0" y="0" width="25" height="25" fill="black">
<rect fill="white" width="25" height="25"/>
<path fill-rule="evenodd" clip-rule="evenodd" d="M12.3145 9.48612L3.82843 1L1 3.82843L9.48612 12.3145L1.00002 20.8006L3.82845 23.6291L12.3145 15.143L20.799 23.6274L23.6274 20.799L15.143 12.3145L23.6274 3.83008L20.799 1.00165L12.3145 9.48612Z"/>
</mask>
<path fill-rule="evenodd" clip-rule="evenodd" d="M12.3145 9.48612L3.82843 1L1 3.82843L9.48612 12.3145L1.00002 20.8006L3.82845 23.6291L12.3145 15.143L20.799 23.6274L23.6274 20.799L15.143 12.3145L23.6274 3.83008L20.799 1.00165L12.3145 9.48612Z" fill="#FCF8F3"/>
<path d="M3.82843 1L4.53553 0.292893C4.14501 -0.0976311 3.51184 -0.0976311 3.12132 0.292893L3.82843 1ZM12.3145 9.48612L11.6074 10.1932C11.998 10.5837 12.6311 10.5837 13.0217 10.1932L12.3145 9.48612ZM1 3.82843L0.292893 3.12132C-0.0976311 3.51184 -0.0976311 4.14501 0.292893 4.53553L1 3.82843ZM9.48612 12.3145L10.1932 13.0217C10.3808 12.8341 10.4861 12.5798 10.4861 12.3145C10.4861 12.0493 10.3808 11.795 10.1932 11.6074L9.48612 12.3145ZM1.00002 20.8006L0.292914 20.0935C-0.0976107 20.4841 -0.0976108 21.1172 0.292913 21.5077L1.00002 20.8006ZM3.82845 23.6291L3.12134 24.3362C3.30888 24.5237 3.56323 24.6291 3.82845 24.6291C4.09366 24.6291 4.34802 24.5237 4.53555 24.3362L3.82845 23.6291ZM12.3145 15.143L13.0217 14.4359C12.6311 14.0453 11.998 14.0453 11.6074 14.4359L12.3145 15.143ZM20.799 23.6274L20.0919 24.3345C20.4824 24.725 21.1156 24.725 21.5061 24.3345L20.799 23.6274ZM23.6274 20.799L24.3345 21.5061C24.5221 21.3186 24.6274 21.0642 24.6274 20.799C24.6274 20.5338 24.5221 20.2794 24.3345 20.0919L23.6274 20.799ZM15.143 12.3145L14.4359 11.6074C14.2483 11.795 14.143 12.0493 14.143 12.3145C14.143 12.5798 14.2483 12.8341 14.4359 13.0217L15.143 12.3145ZM23.6274 3.83008L24.3345 4.53718C24.7251 4.14666 24.7251 3.5135 24.3345 3.12297L23.6274 3.83008ZM20.799 1.00165L21.5061 0.294544C21.3186 0.107008 21.0642 0.00165084 20.799 0.00165081C20.5338 0.00165078 20.2794 0.107008 20.0919 0.294544L20.799 1.00165ZM3.12132 1.70711L11.6074 10.1932L13.0217 8.77901L4.53553 0.292893L3.12132 1.70711ZM1.70711 4.53553L4.53553 1.70711L3.12132 0.292893L0.292893 3.12132L1.70711 4.53553ZM10.1932 11.6074L1.70711 3.12132L0.292893 4.53553L8.77901 13.0217L10.1932 11.6074ZM1.70713 21.5077L10.1932 13.0217L8.77901 11.6074L0.292914 20.0935L1.70713 21.5077ZM4.53555 22.922L1.70713 20.0935L0.292913 21.5077L3.12134 24.3362L4.53555 22.922ZM11.6074 14.4359L3.12134 22.922L4.53555 24.3362L13.0217 15.8501L11.6074 14.4359ZM21.5061 22.9203L13.0217 14.4359L11.6074 15.8501L20.0919 24.3345L21.5061 22.9203ZM22.9203 20.0919L20.0919 22.9203L21.5061 24.3345L24.3345 21.5061L22.9203 20.0919ZM14.4359 13.0217L22.9203 21.5061L24.3345 20.0919L15.8501 11.6074L14.4359 13.0217ZM22.9203 3.12297L14.4359 11.6074L15.8501 13.0217L24.3345 4.53718L22.9203 3.12297ZM20.0919 1.70876L22.9203 4.53718L24.3345 3.12297L21.5061 0.294544L20.0919 1.70876ZM13.0217 10.1932L21.5061 1.70876L20.0919 0.294544L11.6074 8.77901L13.0217 10.1932Z" fill="#1E4A57" mask="url(#path-1-outside-1_3014_842)"/>
</svg>
