<svg width="500" height="500" viewBox="0 0 500 500" fill="none" xmlns="http://www.w3.org/2000/svg">
<rect width="500" height="500" fill="#D9D9D9"/>
<path d="M136.131 239.364V259H132.545L124.002 246.641H123.858V259H119.707V239.364H123.35L131.826 251.713H131.999V239.364H136.131ZM158.956 249.182C158.956 251.323 158.55 253.145 157.738 254.647C156.933 256.149 155.833 257.297 154.44 258.089C153.053 258.875 151.493 259.268 149.761 259.268C148.016 259.268 146.45 258.872 145.063 258.08C143.676 257.287 142.579 256.14 141.774 254.637C140.969 253.135 140.566 251.317 140.566 249.182C140.566 247.04 140.969 245.219 141.774 243.717C142.579 242.214 143.676 241.07 145.063 240.284C146.45 239.491 148.016 239.095 149.761 239.095C151.493 239.095 153.053 239.491 154.44 240.284C155.833 241.07 156.933 242.214 157.738 243.717C158.55 245.219 158.956 247.04 158.956 249.182ZM154.747 249.182C154.747 247.795 154.539 246.625 154.124 245.673C153.714 244.72 153.136 243.998 152.388 243.506C151.64 243.013 150.765 242.767 149.761 242.767C148.757 242.767 147.882 243.013 147.134 243.506C146.386 243.998 145.804 244.72 145.389 245.673C144.98 246.625 144.775 247.795 144.775 249.182C144.775 250.569 144.98 251.739 145.389 252.691C145.804 253.643 146.386 254.366 147.134 254.858C147.882 255.35 148.757 255.596 149.761 255.596C150.765 255.596 151.64 255.35 152.388 254.858C153.136 254.366 153.714 253.643 154.124 252.691C154.539 251.739 154.747 250.569 154.747 249.182ZM170.98 259V239.364H178.727C180.217 239.364 181.486 239.648 182.534 240.217C183.582 240.779 184.381 241.562 184.931 242.566C185.487 243.563 185.765 244.714 185.765 246.018C185.765 247.322 185.484 248.472 184.921 249.469C184.359 250.467 183.544 251.243 182.476 251.799C181.415 252.355 180.131 252.634 178.622 252.634H173.684V249.306H177.951C178.75 249.306 179.408 249.169 179.926 248.894C180.45 248.613 180.84 248.226 181.096 247.734C181.358 247.235 181.489 246.663 181.489 246.018C181.489 245.366 181.358 244.797 181.096 244.311C180.84 243.819 180.45 243.439 179.926 243.17C179.402 242.895 178.737 242.758 177.932 242.758H175.132V259H170.98ZM189.812 259V239.364H193.963V247.466H202.391V239.364H206.533V259H202.391V250.888H193.963V259H189.812ZM229.351 249.182C229.351 251.323 228.945 253.145 228.133 254.647C227.328 256.149 226.229 257.297 224.835 258.089C223.448 258.875 221.888 259.268 220.156 259.268C218.411 259.268 216.845 258.872 215.458 258.08C214.071 257.287 212.975 256.14 212.169 254.637C211.364 253.135 210.961 251.317 210.961 249.182C210.961 247.04 211.364 245.219 212.169 243.717C212.975 242.214 214.071 241.07 215.458 240.284C216.845 239.491 218.411 239.095 220.156 239.095C221.888 239.095 223.448 239.491 224.835 240.284C226.229 241.07 227.328 242.214 228.133 243.717C228.945 245.219 229.351 247.04 229.351 249.182ZM225.142 249.182C225.142 247.795 224.934 246.625 224.519 245.673C224.11 244.72 223.531 243.998 222.783 243.506C222.035 243.013 221.16 242.767 220.156 242.767C219.153 242.767 218.277 243.013 217.529 243.506C216.781 243.998 216.199 244.72 215.784 245.673C215.375 246.625 215.17 247.795 215.17 249.182C215.17 250.569 215.375 251.739 215.784 252.691C216.199 253.643 216.781 254.366 217.529 254.858C218.277 255.35 219.153 255.596 220.156 255.596C221.16 255.596 222.035 255.35 222.783 254.858C223.531 254.366 224.11 253.643 224.519 252.691C224.934 251.739 225.142 250.569 225.142 249.182ZM232.132 242.787V239.364H248.259V242.787H242.247V259H238.144V242.787H232.132ZM269.413 249.182C269.413 251.323 269.007 253.145 268.196 254.647C267.39 256.149 266.291 257.297 264.897 258.089C263.51 258.875 261.951 259.268 260.218 259.268C258.473 259.268 256.907 258.872 255.52 258.08C254.133 257.287 253.037 256.14 252.232 254.637C251.426 253.135 251.023 251.317 251.023 249.182C251.023 247.04 251.426 245.219 252.232 243.717C253.037 242.214 254.133 241.07 255.52 240.284C256.907 239.491 258.473 239.095 260.218 239.095C261.951 239.095 263.51 239.491 264.897 240.284C266.291 241.07 267.39 242.214 268.196 243.717C269.007 245.219 269.413 247.04 269.413 249.182ZM265.204 249.182C265.204 247.795 264.996 246.625 264.581 245.673C264.172 244.72 263.593 243.998 262.846 243.506C262.098 243.013 261.222 242.767 260.218 242.767C259.215 242.767 258.339 243.013 257.591 243.506C256.843 243.998 256.262 244.72 255.846 245.673C255.437 246.625 255.233 247.795 255.233 249.182C255.233 250.569 255.437 251.739 255.846 252.691C256.262 253.643 256.843 254.366 257.591 254.858C258.339 255.35 259.215 255.596 260.218 255.596C261.222 255.596 262.098 255.35 262.846 254.858C263.593 254.366 264.172 253.643 264.581 252.691C264.996 251.739 265.204 250.569 265.204 249.182ZM281.438 259V239.364H294.439V242.787H285.589V247.466H293.576V250.888H285.589V259H281.438ZM316.626 249.182C316.626 251.323 316.221 253.145 315.409 254.647C314.603 256.149 313.504 257.297 312.11 258.089C310.723 258.875 309.164 259.268 307.431 259.268C305.686 259.268 304.12 258.872 302.733 258.08C301.346 257.287 300.25 256.14 299.445 254.637C298.639 253.135 298.237 251.317 298.237 249.182C298.237 247.04 298.639 245.219 299.445 243.717C300.25 242.214 301.346 241.07 302.733 240.284C304.12 239.491 305.686 239.095 307.431 239.095C309.164 239.095 310.723 239.491 312.11 240.284C313.504 241.07 314.603 242.214 315.409 243.717C316.221 245.219 316.626 247.04 316.626 249.182ZM312.417 249.182C312.417 247.795 312.21 246.625 311.794 245.673C311.385 244.72 310.806 243.998 310.059 243.506C309.311 243.013 308.435 242.767 307.431 242.767C306.428 242.767 305.552 243.013 304.804 243.506C304.056 243.998 303.475 244.72 303.059 245.673C302.65 246.625 302.446 247.795 302.446 249.182C302.446 250.569 302.65 251.739 303.059 252.691C303.475 253.643 304.056 254.366 304.804 254.858C305.552 255.35 306.428 255.596 307.431 255.596C308.435 255.596 309.311 255.35 310.059 254.858C310.806 254.366 311.385 253.643 311.794 252.691C312.21 251.739 312.417 250.569 312.417 249.182ZM333.181 239.364H337.332V252.116C337.332 253.548 336.99 254.8 336.306 255.874C335.629 256.948 334.68 257.786 333.459 258.386C332.238 258.981 330.816 259.278 329.192 259.278C327.562 259.278 326.137 258.981 324.916 258.386C323.695 257.786 322.746 256.948 322.068 255.874C321.391 254.8 321.052 253.548 321.052 252.116V239.364H325.203V251.761C325.203 252.509 325.366 253.174 325.692 253.755C326.025 254.337 326.491 254.794 327.092 255.126C327.693 255.459 328.393 255.625 329.192 255.625C329.997 255.625 330.697 255.459 331.292 255.126C331.893 254.794 332.356 254.337 332.682 253.755C333.015 253.174 333.181 252.509 333.181 251.761V239.364ZM358.522 239.364V259H354.937L346.394 246.641H346.25V259H342.098V239.364H345.742L354.217 251.713H354.39V239.364H358.522ZM370.264 259H363.303V239.364H370.321C372.296 239.364 373.996 239.757 375.422 240.543C376.847 241.323 377.944 242.445 378.711 243.908C379.484 245.372 379.871 247.124 379.871 249.163C379.871 251.208 379.484 252.966 378.711 254.436C377.944 255.906 376.841 257.034 375.403 257.821C373.971 258.607 372.258 259 370.264 259ZM367.454 255.443H370.091C371.318 255.443 372.351 255.225 373.188 254.791C374.032 254.35 374.664 253.669 375.086 252.749C375.515 251.822 375.729 250.626 375.729 249.163C375.729 247.712 375.515 246.526 375.086 245.605C374.664 244.685 374.035 244.007 373.197 243.573C372.36 243.138 371.328 242.921 370.101 242.921H367.454V255.443Z" fill="#5F5F5F"/>
</svg>
